<?xml version="1.0"?>
<svg xmlns="http://www.w3.org/2000/svg" height="512px" viewBox="0 0 64 64" width="512px" class=""><g transform="matrix(1.1044 0 0 1.1044 -3.34084 -3.34084)"><g id="Cheque"><path d="m35.828 32h-7.828v4h6.285a1.954 1.954 0 0 1 -.07-.2 1.982 1.982 0 0 1 .23-1.513z" data-original="#000000" class="active-path" data-old_color="#000000" fill="#FFFFFF"/><path d="m35.621 42.009-.616-.372-.872 2.835 2.103-2.091z" data-original="#000000" class="active-path" data-old_color="#000000" fill="#FFFFFF"/><path d="m56 32h-8.488l-2.417 4h10.905z" data-original="#000000" class="active-path" data-old_color="#000000" fill="#FFFFFF"/><path d="m54.26 5.368-1.551 2.567 5.135 3.1 1.556-2.563a3 3 0 1 0 -5.135-3.1z" data-original="#000000" class="active-path" data-old_color="#000000" fill="#FFFFFF"/><path d="m38.368 41.333 1.034-1.712-3.424-2.07-1.034 1.712 3.423 2.069z" data-original="#000000" class="active-path" data-old_color="#000000" fill="#FFFFFF"/><path d="m41.292 38.426 13.448-22.252-5.135-3.104-13.448 22.252z" data-original="#000000" class="active-path" data-old_color="#000000" fill="#FFFFFF"/><path d="m52.724 9.055h2v6h-2z" transform="matrix(.517 -.856 .856 .517 15.619 51.799)" data-original="#000000" class="active-path" data-old_color="#000000" fill="#FFFFFF"/><path d="m15 51a7 7 0 1 0 -7-7 7.008 7.008 0 0 0 7 7zm-1-6a2 2 0 0 1 -2-2v-1a2 2 0 0 1 2-2v-1a1 1 0 0 1 2 0v1a2 2 0 0 1 2 2 1 1 0 0 1 -2 0h-2v1h2a2 2 0 0 1 2 2v1a2 2 0 0 1 -2 2v1a1 1 0 0 1 -2 0v-1a2 2 0 0 1 -2-2 1 1 0 0 1 2 0h2v-1z" data-original="#000000" class="active-path" data-old_color="#000000" fill="#FFFFFF"/><path d="m4 60h56v-32h-10.07l-1.209 2h8.279a1 1 0 0 1 1 1v6a1 1 0 0 1 -1 1h-13.114l-.886 1.46a1.988 1.988 0 0 1 -1.232.908 2.046 2.046 0 0 1 -.483.059c-.012 0-.023-.005-.034-.005l-1.175 1.944a1.989 1.989 0 0 1 -1.233.908 2.04 2.04 0 0 1 -.483.059 1.986 1.986 0 0 1 -.217-.03l-5.441 5.406a1 1 0 0 1 -1.661-1l2.259-7.319a1.978 1.978 0 0 1 -.065-2.161l.135-.229h-6.37a1 1 0 0 1 -1-1v-6a1 1 0 0 1 1-1h10.036l1.209-2h-34.245zm39-18h14a1 1 0 0 1 0 2h-14a1 1 0 0 1 0-2zm-4 4h18a1 1 0 0 1 0 2h-18a1 1 0 0 1 0-2zm-12 4h30a1 1 0 0 1 0 2h-30a1 1 0 0 1 0-2zm0 4h30a1 1 0 0 1 0 2h-30a1 1 0 0 1 0-2zm-12-19a9 9 0 1 1 -9 9 9.011 9.011 0 0 1 9-9z" data-original="#000000" class="active-path" data-old_color="#000000" fill="#FFFFFF"/><path d="m60.232 14.819-1.955-1.181-1.043 1.706 1.108.67-3.621 5.991a1 1 0 0 0 1.712 1.034l4.138-6.847a1 1 0 0 0 -.339-1.373z" data-original="#000000" class="active-path" data-old_color="#000000" fill="#FFFFFF"/></g></g> </svg>
