<svg xmlns="http://www.w3.org/2000/svg" width="17.826" height="15.131" viewBox="0 0 17.826 15.131">
    <defs>
        <style>
            .cls-1{fill:#fff}
        </style>
    </defs>
    <g id="noun_report_2500517" transform="translate(-2.5 -9.635)">
        <g id="Group_310" data-name="Group 310" transform="translate(2.5 9.635)">
            <path id="Path_2765" d="M3.325 60.2a.833.833 0 0 0-.825.825V65a.825.825 0 1 0 1.651 0v-3.975a.821.821 0 0 0-.826-.825z" class="cls-1" data-name="Path 2765" transform="translate(-2.5 -50.715)"/>
            <path id="Path_2766" d="M20.625 52.4a.833.833 0 0 0-.825.825v5.44a.825.825 0 0 0 1.651 0v-5.44a.833.833 0 0 0-.826-.825z" class="cls-1" data-name="Path 2766" transform="translate(-16.555 -44.378)"/>
            <path id="Path_2767" d="M37.825 42.5a.833.833 0 0 0-.825.825v7.3a.825.825 0 1 0 1.651 0v-7.281a.837.837 0 0 0-.826-.844z" class="cls-1" data-name="Path 2767" transform="translate(-30.529 -36.335)"/>
            <path id="Path_2768" d="M55.025 53a.833.833 0 0 0-.825.825v5.327a.825.825 0 0 0 1.651 0v-5.308a.813.813 0 0 0-.826-.844z" class="cls-1" data-name="Path 2768" transform="translate(-44.502 -44.866)"/>
            <path id="Path_2769" d="M72.225 43.5a.833.833 0 0 0-.825.825v7.128a.825.825 0 1 0 1.651 0v-7.128a.809.809 0 0 0-.826-.825z" class="cls-1" data-name="Path 2769" transform="translate(-58.476 -37.148)"/>
            <path id="Path_2770" d="M89.525 30.4a.833.833 0 0 0-.825.825v9.566a.825.825 0 0 0 1.651 0v-9.566a.833.833 0 0 0-.826-.825z" class="cls-1" data-name="Path 2770" transform="translate(-72.531 -26.505)"/>
            <path id="Path_2771" d="M3.335 17.544a.787.787 0 0 0 .45-.131l5.946-3.883 2.757 2.457a.822.822 0 0 0 1.05.038l6.471-4.9a.853.853 0 0 0 .169-1.163.832.832 0 0 0-1.162-.162l-5.927 4.5-2.739-2.42a.846.846 0 0 0-1.013-.08l-6.453 4.22a.84.84 0 0 0-.244 1.144.849.849 0 0 0 .695.38z" class="cls-1" data-name="Path 2771" transform="translate(-2.509 -9.635)"/>
        </g>
    </g>
</svg>
