<svg xmlns="http://www.w3.org/2000/svg" width="15.709" height="20.619" viewBox="0 0 15.709 20.619">
    <defs>
        <style>
            .cls-1{fill:#fff}
        </style>
    </defs>
    <g id="noun_Service_Report_1617985" data-name="noun_Service Report_1617985" transform="translate(-148.457 -16.974)">
        <g id="Group_11" data-name="Group 11" transform="translate(148.456 16.974)">
            <g id="Group_10" data-name="Group 10">
                <path id="Rectangle_13" d="M0 0h5.891v1.964H0z" class="cls-1" data-name="Rectangle 13" transform="translate(4.909)"/>
                <path id="Path_117" d="M17.746 2h-.982v2.946H6.946V2h-.982A1.964 1.964 0 0 0 4 3.964v15.709a1.964 1.964 0 0 0 1.964 1.964h11.782a1.964 1.964 0 0 0 1.964-1.964V3.964A1.964 1.964 0 0 0 17.746 2zm-.288 15.709l-.694.694a.982.982 0 0 1-1.389 0L11.9 14.932c-.01-.01-.013-.024-.023-.034a3.411 3.411 0 0 1-4.225-4.734l2.425 2.425 1.562-1.562L9.219 8.6a3.4 3.4 0 0 1 1.51-.364 3.4 3.4 0 0 1 3.224 4.589c.01.009.024.013.034.023l3.471 3.471a.982.982 0 0 1 0 1.39z" class="cls-1" data-name="Path 117" transform="translate(-4 -1.018)"/>
            </g>
        </g>
    </g>
</svg>
