<svg xmlns="http://www.w3.org/2000/svg" width="18" height="17.758" viewBox="0 0 18 17.758">
    <defs>
        <style>
            .cls-1{fill:#fff}
        </style>
    </defs>
    <g id="noun_Project_1281270" transform="translate(-1.3 -2)">
        <path id="Path_2850" d="M18.855 3.794H6.48A2.638 2.638 0 0 0 3.816 2a2.6 2.6 0 0 0-1.72.61A2.545 2.545 0 0 0 1.3 4.59v12.5a2.664 2.664 0 0 0 2.664 2.664h14.872a.458.458 0 0 0 .464-.454V4.257a.443.443 0 0 0-.445-.463zm-16.63.8a1.688 1.688 0 0 1 .481-1.295 1.673 1.673 0 0 1 1.11-.37c.869 0 1.794.518 1.794 1.276V15a2.692 2.692 0 0 0-1.646-.573 2.621 2.621 0 0 0-1.739.647zm16.167 14.24H3.964a1.73 1.73 0 1 1 0-3.459 1.688 1.688 0 0 1 1.646 1.257.459.459 0 0 0 .906-.111V4.719h11.858v14.115zM9.18 16.059h6.308a.458.458 0 0 0 .462-.462v-5.273a.463.463 0 0 0-.148-.333l-3.034-2.9a.478.478 0 0 0-.629-.018l-3.256 2.9a.505.505 0 0 0-.148.351V15.6a.443.443 0 0 0 .445.459zm.462-5.531l2.793-2.479 2.59 2.479v4.606H9.643z" class="cls-1" data-name="Path 2850"/>
    </g>
</svg>
