<?xml version="1.0" encoding="UTF-8"?>
<svg width="17px" height="18px" viewBox="0 0 17 18" version="1.1" xmlns="http://www.w3.org/2000/svg" xmlns:xlink="http://www.w3.org/1999/xlink">
    <!-- Generator: Sketch 52.6 (67491) - http://www.bohemiancoding.com/sketch -->
    <title>Rocket - simple-line-icons</title>
    <desc>Created with Sketch.</desc>
    <g id="Page-1" stroke="none" stroke-width="1" fill="none" fill-rule="evenodd">
        <g id="Logo---Dark-background" transform="translate(-6.000000, -32.000000)" fill="#F2637B">
            <g id="Group" transform="translate(5.000000, 32.000000)">
                <path d="M4.28125,14.796875 C4.34375031,14.6718744 4.41145797,14.5390632 4.484375,14.3984375 C4.55729203,14.2578118 4.65104109,14.1093758 4.765625,13.953125 L5.5,14.625 C5.40624953,14.7812508 5.33854187,14.9062495 5.296875,15 C5.25520812,15.0937505 5.20833359,15.1979161 5.15625,15.3125 C4.90624875,15.8229192 4.56771047,16.2213527 4.140625,16.5078125 C3.71353953,16.7942723 2.83334,16.9375 1.5,16.9375 L1.015625,16.953125 L1,16.4375 C1,15.1874938 1.13020703,14.3463563 1.390625,13.9140625 C1.65104297,13.4817687 2.04687234,13.135418 2.578125,12.875 C2.71354234,12.8124997 2.84635352,12.7473962 2.9765625,12.6796875 C3.10677148,12.6119788 3.24479094,12.5208339 3.390625,12.40625 L4,13.1875 C3.82291578,13.3229173 3.6510425,13.4348954 3.484375,13.5234375 C3.3177075,13.6119796 3.16666734,13.692708 3.03125,13.765625 C2.70833172,13.9218758 2.4635425,14.1145822 2.296875,14.34375 C2.1302075,14.5729178 2.03645844,15.1093708 2.015625,15.953125 C2.89062937,15.9218748 3.44791547,15.8046885 3.6875,15.6015625 C3.92708453,15.3984365 4.12499922,15.13021 4.28125,14.796875 Z M12.015625,3.953125 C12.5677111,3.953125 13.0390605,4.14843555 13.4296875,4.5390625 C13.8203145,4.92968945 14.015625,5.40103891 14.015625,5.953125 C14.015625,6.50521109 13.8203145,6.97656055 13.4296875,7.3671875 C13.0390605,7.75781445 12.5677111,7.953125 12.015625,7.953125 C11.4635389,7.953125 10.9921895,7.75781445 10.6015625,7.3671875 C10.2109355,6.97656055 10.015625,6.50521109 10.015625,5.953125 C10.015625,5.40103891 10.2109355,4.92968945 10.6015625,4.5390625 C10.9921895,4.14843555 11.4635389,3.953125 12.015625,3.953125 Z M12.015625,6.953125 C12.2864597,6.953125 12.5208323,6.85416766 12.71875,6.65625 C12.9166677,6.45833234 13.015625,6.22395969 13.015625,5.953125 C13.015625,5.68229031 12.9166677,5.44791766 12.71875,5.25 C12.5208323,5.05208234 12.2864597,4.953125 12.015625,4.953125 C11.7343736,4.953125 11.4973968,5.05208234 11.3046875,5.25 C11.1119782,5.44791766 11.015625,5.68229031 11.015625,5.953125 C11.015625,6.22395969 11.1119782,6.45833234 11.3046875,6.65625 C11.4973968,6.85416766 11.7343736,6.953125 12.015625,6.953125 Z M17,1.453125 C17,1.48437516 17.0052083,1.68489398 17.015625,2.0546875 C17.0260417,2.42448102 17.0156252,2.87760148 16.984375,3.4140625 C16.9531248,3.95052352 16.8906255,4.53645516 16.796875,5.171875 C16.7031245,5.80729484 16.5520844,6.40624719 16.34375,6.96875 C16.1666658,7.43750234 15.9635428,7.85676898 15.734375,8.2265625 C15.5052072,8.59635602 15.1406275,8.99999781 14.640625,9.4375 C14.2968733,9.75000156 13.7656286,10.0885398 13.046875,10.453125 C12.3281214,10.8177102 11.6875028,11.1614567 11.125,11.484375 C10.9166656,11.5989589 10.7109385,11.710937 10.5078125,11.8203125 C10.3046865,11.929688 10.1406256,12.0260413 10.015625,12.109375 L10.015625,14.6875 C10.015625,14.760417 10.0000002,14.8307288 9.96875,14.8984375 C9.93749984,14.9661462 9.89583359,15.0208331 9.84375,15.0625 L7.984375,16.90625 C7.94270812,16.9479169 7.89322945,16.9791666 7.8359375,17 C7.77864555,17.0208334 7.71875031,17.03125 7.65625,17.03125 C7.63541656,17.03125 7.6119793,17.0286459 7.5859375,17.0234375 C7.5598957,17.0182291 7.53645844,17.0104167 7.515625,17 C7.43229125,16.9791666 7.35937531,16.9348962 7.296875,16.8671875 C7.23437469,16.7994788 7.19270844,16.7239588 7.171875,16.640625 L6.5625,14.0625 L5.4375,12.8125 C5.16666531,12.5104152 4.94270922,12.2630218 4.765625,12.0703125 C4.58854078,11.8776032 4.45312547,11.7187506 4.359375,11.59375 L1.375,10.90625 C1.28124953,10.8854166 1.20312531,10.8463545 1.140625,10.7890625 C1.07812469,10.7317705 1.03125016,10.6614588 1,10.578125 C0.979166562,10.4843745 0.976562422,10.3958338 0.9921875,10.3125 C1.00781258,10.2291663 1.04687469,10.1562503 1.109375,10.09375 L2.9375,8.09375 C2.98958359,8.04166641 3.04687469,8.0026043 3.109375,7.9765625 C3.17187531,7.9505207 3.23958297,7.9375 3.3125,7.9375 L6.09375,7.9375 C6.17708375,7.78124922 6.27083281,7.60416766 6.375,7.40625 C6.47916719,7.20833234 6.58333281,7.00000109 6.6875,6.78125 C6.95833469,6.22916391 7.2473943,5.65625297 7.5546875,5.0625 C7.8619807,4.46874703 8.17708172,3.98958516 8.5,3.625 C8.87500187,3.17708109 9.27083125,2.80468898 9.6875,2.5078125 C10.1041687,2.21093602 10.5572892,1.97395922 11.046875,1.796875 C11.713545,1.54687375 12.3749967,1.36197977 13.03125,1.2421875 C13.6875033,1.12239523 14.2760391,1.04427102 14.796875,1.0078125 C15.3177109,0.971353984 15.7369776,0.958333281 16.0546875,0.96875 L16.53125,0.984375 C16.6562506,0.994791719 16.7630204,1.04427039 16.8515625,1.1328125 C16.9401046,1.22135461 16.9895833,1.32812438 17,1.453125 Z M15.40625,6.609375 C15.5520841,6.21353969 15.6666662,5.79427305 15.75,5.3515625 C15.8333337,4.90885195 15.8958331,4.47396047 15.9375,4.046875 C15.9791669,3.61978953 16.0026041,3.22396016 16.0078125,2.859375 C16.0130209,2.49478984 16.015625,2.19791781 16.015625,1.96875 C15.7968739,1.96875 15.520835,1.97656242 15.1875,1.9921875 C14.854165,2.00781258 14.4817729,2.04166641 14.0703125,2.09375 C13.6588521,2.14583359 13.2239606,2.22135367 12.765625,2.3203125 C12.3072894,2.41927133 11.8489606,2.55729078 11.390625,2.734375 C10.9739562,2.88020906 10.5937517,3.07812375 10.25,3.328125 C9.90624828,3.57812625 9.57291828,3.89062313 9.25,4.265625 C8.97916531,4.58854328 8.69531398,5.03905961 8.3984375,5.6171875 C8.10156102,6.19531539 7.82812625,6.7343725 7.578125,7.234375 C7.43229094,7.52604313 7.29427148,7.79687375 7.1640625,8.046875 C7.03385352,8.29687625 6.91666719,8.51041578 6.8125,8.6875 C6.76041641,8.76041703 6.69791703,8.82031227 6.625,8.8671875 C6.55208297,8.91406273 6.47395875,8.9375 6.390625,8.9375 L3.546875,8.9375 L2.421875,10.125 L4.703125,10.640625 C4.75520859,10.6510417 4.80468727,10.6718748 4.8515625,10.703125 C4.89843773,10.7343752 4.94270812,10.7708331 4.984375,10.8125 C5.03645859,10.8750003 5.33593477,11.2109345 5.8828125,11.8203125 C6.42969023,12.4296905 6.93228937,12.9895808 7.390625,13.5 C7.42187516,13.5312502 7.44791656,13.565104 7.46875,13.6015625 C7.48958344,13.638021 7.50520828,13.6770831 7.515625,13.71875 L7.953125,15.609375 L9.015625,14.453125 L9.015625,11.84375 C9.015625,11.770833 9.03124984,11.7005212 9.0625,11.6328125 C9.09375016,11.5651038 9.14062469,11.5052086 9.203125,11.453125 C9.29687547,11.3697913 9.46354047,11.2604173 9.703125,11.125 C9.94270953,10.9895827 10.2552064,10.8177094 10.640625,10.609375 C11.1510442,10.3177069 11.757809,9.9921893 12.4609375,9.6328125 C13.164066,9.2734357 13.6718734,8.95833469 13.984375,8.6875 C14.4010437,8.31249813 14.7031241,7.97656398 14.890625,7.6796875 C15.0781259,7.38281102 15.2499992,7.02604375 15.40625,6.609375 Z" id="Rocket---simple-line-icons"></path>
            </g>
        </g>
    </g>
</svg>