<svg xmlns="http://www.w3.org/2000/svg" width="18.113" height="18.112" viewBox="0 0 18.113 18.112">
    <defs>
        <style>
            .cls-1{fill:#fff}
        </style>
    </defs>
    <g id="noun_schedule_1776600" transform="translate(-7.894 -7.894)">
        <path id="Path_2772" d="M21.193 13.763V8.1a1.509 1.509 0 0 0-1.509-1.509h-1.66V5.5a.5.5 0 1 0-1.006 0v1.09H9.075V5.5a.5.5 0 1 0-1.006 0v1.09h-1.56A1.509 1.509 0 0 0 5 8.1v11.585a1.509 1.509 0 0 0 1.509 1.509h7.254a5.278 5.278 0 1 0 7.431-7.431zM6.509 7.6H8.07v1.087a.5.5 0 0 0 1.006 0V7.6h7.944v1.087a.5.5 0 1 0 1.006 0V7.6h1.66a.5.5 0 0 1 .5.5v2.43H6.006V8.1a.5.5 0 0 1 .5-.5zm0 12.589a.5.5 0 0 1-.5-.5v-8.151h14.179V13.1a5.276 5.276 0 0 0-7.088 7.088zM17.824 22.1a4.275 4.275 0 1 1 4.276-4.276 4.275 4.275 0 0 1-4.276 4.276z" class="cls-1" data-name="Path 2772" transform="translate(2.894 2.894)"/>
        <path id="Path_2773" d="M67.562 58.2V56a.656.656 0 0 0-1.312 0v2.667a.843.843 0 0 0 .843.843H70.6a.656.656 0 0 0 0-1.312z" class="cls-1" data-name="Path 2773" transform="translate(-45.252 -37.206)"/>
    </g>
</svg>
