<svg xmlns="http://www.w3.org/2000/svg" width="16" height="21" viewBox="0 0 16 21">
    <defs>
        <style>
            .cls-1{fill:#fff}
        </style>
    </defs>
    <g id="Group_316" data-name="Group 316" transform="translate(-4 -1)">
        <path id="Path_2763" d="M10.331 7.237a4.115 4.115 0 0 0-2.55.9l2.087 2.087-.707.707-2.087-2.09a4.114 4.114 0 0 0 4.4 6.524l3.342 3.342a1 1 0 0 0 1.414 0l1.414-1.414a1 1 0 0 0 0-1.414L14.3 12.537a4.11 4.11 0 0 0 .18-1.145 4.154 4.154 0 0 0-4.149-4.155zm3.154 4.154a3.106 3.106 0 0 1-.141.868l-.163.567.417.417 3.342 3.342L15.525 18l-3.342-3.342-.417-.417-.566.159a3.1 3.1 0 0 1-.868.141 3.157 3.157 0 0 1-3.154-3.154 3.026 3.026 0 0 1 .136-.9l1.142 1.142.707.707.707-.707.707-.707.707-.707-.707-.707-1.143-1.135a3.026 3.026 0 0 1 .9-.136 3.157 3.157 0 0 1 3.15 3.154zM18 2h-1V1H7v1H6a2 2 0 0 0-2 2v16a2 2 0 0 0 2 2h12a2 2 0 0 0 2-2V4a2 2 0 0 0-2-2zM8 2h8v1H8zm11 18a1 1 0 0 1-1 1H6a1 1 0 0 1-1-1V4a1 1 0 0 1 1-1h1v1h10V3h1a1 1 0 0 1 1 1z" class="cls-1" data-name="Path 2763"/>
    </g>
</svg>
